<svg width="521" height="326" viewBox="0 0 521 326" fill="none" xmlns="http://www.w3.org/2000/svg">
<path d="M339.537 8.52022H469.163V40.0811H339.537V8.52022ZM258.521 268.78C252.458 280.288 243.8 290.228 233.233 297.813C222.181 305.492 209.911 311.111 196.893 314.389C183.272 318.039 169.221 319.834 155.12 319.727H0.0189209V0.278809H150.812C166.078 0.278809 179.94 1.6836 192.584 4.30586C205.135 6.92813 215.812 11.4234 224.803 17.5109C233.701 23.5983 240.725 31.746 245.689 41.8605C250.56 51.8813 253.089 64.4307 253.089 79.3215C253.089 95.4297 249.436 108.728 242.13 119.498C234.731 130.268 224.054 138.978 209.537 145.815C229.299 151.434 243.816 161.455 253.37 175.503C263.11 189.738 267.887 206.782 267.887 226.824C267.887 243.12 264.796 257.074 258.521 268.78ZM519.645 219.332H352.556C352.556 237.5 358.831 254.92 368.291 264.285C377.844 273.557 391.518 278.239 409.407 278.239C422.332 278.239 433.291 274.961 442.657 268.499C451.929 262.037 457.549 255.201 459.609 248.083H515.618C506.627 275.898 492.952 295.752 474.407 307.74C456.05 319.727 433.572 325.721 407.44 325.721C389.177 325.721 372.786 322.724 358.082 317.011C343.939 311.486 331.201 303.057 320.711 292.193C310.368 281.037 302.374 267.915 297.203 253.609C291.489 237.781 288.679 221.111 288.867 204.347C288.867 187.022 291.77 170.914 297.39 155.929C308.161 126.803 330.546 103.484 359.112 91.4026C374.379 85.0343 390.769 81.8501 407.347 82.0374C427.015 82.0374 444.062 85.7835 458.86 93.463C473.106 100.796 485.476 111.306 495.013 124.181C504.472 137.011 511.122 151.621 515.337 168.104C519.364 184.306 520.769 201.351 519.645 219.332ZM405.38 129.8C395.265 129.8 386.742 131.58 380.185 135.045C373.629 138.51 368.197 142.818 364.076 147.781C360.151 152.574 357.25 158.12 355.553 164.077C354.054 169.04 353.024 174.098 352.649 179.249H456.144C454.645 163.047 449.026 151.059 441.533 142.631C433.665 134.295 421.021 129.8 405.38 129.8ZM172.635 120.341C180.783 114.441 184.717 104.701 184.717 91.309C184.998 84.9406 183.686 78.6659 180.877 72.9531C178.348 68.3641 174.601 64.5244 170.012 61.8084C165.253 58.923 159.968 57.0128 154.464 56.1893C148.47 55.0655 142.382 54.5036 136.388 54.5972H70.545V129.238H141.82C154.09 129.332 164.486 126.335 172.635 120.341ZM183.686 187.771C174.508 180.747 162.238 177.282 146.972 177.282H70.3577V265.315H145.473C152.498 265.315 158.96 264.66 165.235 263.348C171.511 262.037 177.13 259.79 181.907 256.606C186.684 253.515 190.524 249.301 193.427 243.869C196.237 238.437 197.642 231.507 197.642 223.172C197.642 206.595 192.959 194.889 183.686 187.771Z" fill="#0861FF"/>
</svg>
