<svg width="521" height="520" viewBox="0 0 521 520" fill="none" xmlns="http://www.w3.org/2000/svg">
<path d="M260.018 0C116.416 0 0.0170898 116.415 0.0170898 260.001C0.0170898 403.587 116.416 520 260.018 520C403.62 520 520.019 403.585 520.019 259.999C520.019 116.413 403.618 0 260.018 0ZM430.625 125.84C458.574 161.33 475.687 205.659 477.035 253.905C418.698 243.684 368.388 243.376 324.918 250.266C319.41 237.623 313.739 225.338 307.922 213.443C354.544 194.269 396.355 166.302 430.625 125.84ZM400.709 94.7702C370.094 131.934 331.662 157.511 288.178 174.916C260.341 123.339 231.71 80.3564 208.83 48.9782C225.259 44.9638 242.37 42.82 260.002 42.82C313.675 42.8022 362.781 62.4156 400.709 94.7702ZM166.662 63.9435C188.777 93.4689 218.206 136.239 246.986 188.678C185.984 205.432 117.749 209.95 48.6865 210.144C63.9285 145.535 108.03 91.9749 166.662 63.9435ZM42.8514 259.981L43.0299 252.961H44.199C121.582 252.961 198.411 247.892 267.295 227.594C272.431 238.044 277.484 248.768 282.425 259.803C191.799 286.372 135.298 346.009 96.5741 402.753C63.1645 364.585 42.8514 314.616 42.8514 259.981ZM128.229 432.429C164.889 377.212 215.979 322.579 299.115 299.633C318.533 349.391 334.377 403.698 342.763 460.735C317.25 471.331 289.317 477.18 260.034 477.18C210.486 477.18 164.793 460.492 128.229 432.429ZM382.705 439.092C373.816 386.978 359.256 337.269 341.722 291.185C379.716 286.358 423.394 287.529 474.029 296.839C463.906 355.694 430.074 406.543 382.705 439.092Z" fill="#EA4C89"/>
</svg>
