<svg width="501" height="500" viewBox="0 0 501 500" fill="none" xmlns="http://www.w3.org/2000/svg">
<rect x="56.9333" width="386.151" height="417.307" fill="white"/>
<path d="M426.038 426.034H351.951V310.011C351.951 282.344 351.457 246.728 313.418 246.728C274.831 246.728 268.928 276.872 268.928 307.996V426.026H194.841V187.435H265.964V220.041H266.96C274.078 207.871 284.363 197.86 296.72 191.073C309.078 184.286 323.045 180.978 337.134 181.501C412.224 181.501 426.069 230.892 426.069 295.147L426.038 426.034ZM111.246 154.822C102.743 154.823 94.43 152.303 87.3589 147.58C80.2878 142.857 74.776 136.144 71.5205 128.288C68.265 120.433 67.412 111.788 69.0694 103.448C70.7269 95.1078 74.8202 87.4463 80.8319 81.4325C86.8436 75.4187 94.5036 71.3226 102.843 69.6622C111.183 68.0017 119.828 68.8516 127.684 72.1043C135.541 75.3569 142.256 80.8663 146.982 87.9357C151.707 95.0051 154.23 103.317 154.232 111.82C154.233 117.466 153.122 123.057 150.962 128.274C148.803 133.49 145.636 138.231 141.645 142.224C137.653 146.217 132.914 149.384 127.698 151.546C122.483 153.708 116.892 154.821 111.246 154.822ZM148.29 426.034H74.1255V187.435H148.29V426.034ZM462.974 0.0340533H36.8968C27.2261 -0.0750809 17.9076 3.65964 10.9891 10.4175C4.07057 17.1754 0.118026 26.4036 0 36.0742V463.918C0.113987 473.594 4.064 482.828 10.9823 489.593C17.9006 496.358 27.2213 500.1 36.8968 499.997H462.974C472.668 500.119 482.015 496.387 488.961 489.623C495.906 482.858 499.883 473.613 500.017 463.918V36.0434C499.879 26.3536 495.9 17.1149 488.954 10.3572C482.008 3.59944 472.664 -0.124613 462.974 0.00318378" fill="#0A66C2"/>
</svg>
