<svg width="514" height="500" viewBox="0 0 514 500" fill="none" xmlns="http://www.w3.org/2000/svg">
<g clip-path="url(#clip0_4_95)">
<path d="M91.6372 0H422.834C473.047 0 513.646 40.5983 513.646 90.812V409.188C513.646 459.402 473.047 500 422.834 500H91.6372C41.4235 500 0.825195 459.402 0.825195 409.188V90.812C0.825195 40.5983 41.4235 0 91.6372 0Z" fill="#00005B"/>
<path d="M206.808 299.145H127.321L111.082 349.573C110.655 351.496 108.945 352.778 107.022 352.564H66.8511C64.5007 352.564 63.8597 351.282 64.5007 348.718L133.304 151.496C133.945 149.359 134.586 147.436 135.441 144.872C136.296 140.385 136.723 135.684 136.723 130.983C136.509 129.915 137.364 128.846 138.432 128.633H139.073H193.774C195.27 128.633 196.338 129.274 196.552 130.342L274.543 348.291C275.184 350.641 274.543 351.71 272.407 351.71H227.749C226.253 351.923 224.757 350.855 224.33 349.359L206.808 298.077V299.145ZM139.714 256.624H193.988C192.706 252.137 190.996 246.795 189.073 241.239C187.15 235.47 185.227 229.274 183.304 222.863C181.167 216.239 179.244 209.829 177.108 203.205C174.971 196.581 173.048 190.385 171.338 184.188C169.629 178.205 168.133 172.65 166.637 167.521H166.21C164.287 176.709 161.937 185.898 158.945 195.086C155.74 205.342 152.535 216.026 149.116 226.709C146.338 237.607 142.919 247.65 139.714 256.624Z" fill="#9999FF"/>
<path d="M400.398 279.915H332.663C333.517 286.539 335.654 293.162 339.287 298.932C343.133 304.701 348.475 309.188 354.885 311.752C363.432 315.385 372.834 317.308 382.235 317.094C389.714 316.88 397.193 316.239 404.458 314.744C411.081 313.889 417.492 312.18 423.475 309.829C424.543 308.974 425.184 309.402 425.184 311.539V344.231C425.184 345.086 424.97 345.94 424.757 346.795C424.329 347.436 423.902 347.863 423.261 348.291C416.423 351.282 409.372 353.419 401.893 354.701C391.851 356.624 381.808 357.479 371.552 357.265C355.312 357.265 341.637 354.701 330.526 349.786C320.056 345.299 310.868 338.248 303.603 329.487C296.765 321.154 291.851 311.752 288.859 301.496C285.868 291.453 284.372 280.983 284.372 270.299C284.372 258.761 286.081 247.436 289.714 236.325C293.133 225.641 298.475 215.812 305.74 207.051C312.791 198.504 321.552 191.667 331.594 186.752C341.637 181.838 353.603 180.128 367.278 180.128C378.603 179.915 389.928 182.051 400.398 186.752C409.158 190.598 416.851 196.368 422.834 203.846C428.389 211.111 432.876 219.231 435.654 228.205C438.432 236.752 439.714 245.513 439.714 254.274C439.714 259.402 439.5 263.889 439.287 267.949C438.859 272.009 438.646 275 438.432 276.923C438.218 278.419 436.936 279.701 435.44 279.701C434.158 279.701 431.808 279.915 428.389 280.128C424.97 280.556 420.911 280.769 415.996 280.769C411.081 280.769 405.953 279.915 400.398 279.915ZM332.663 248.718H377.748C383.304 248.718 387.364 248.718 389.928 248.504C391.637 248.291 393.346 247.863 394.842 246.795V244.658C394.842 241.88 394.415 239.316 393.56 236.752C389.714 224.786 378.389 216.667 365.782 217.094C354.03 216.453 342.919 222.65 337.364 233.333C334.799 238.248 333.304 243.376 332.663 248.718Z" fill="#9999FF"/>
</g>
<defs>
<clipPath id="clip0_4_95">
<rect width="512.82" height="500" fill="white" transform="translate(0.825195)"/>
</clipPath>
</defs>
</svg>
