<svg width="617" height="500" viewBox="0 0 617 500" fill="none" xmlns="http://www.w3.org/2000/svg">
<g clip-path="url(#clip0_4_33)">
<path d="M231.268 284.073C233.509 244.145 253.039 208.866 282.63 183.937C311.587 159.431 350.478 144.432 393.174 144.432C435.658 144.432 474.549 159.41 503.506 183.937C533.097 208.866 552.542 244.145 554.867 284.073C557.108 325.057 540.6 363.295 511.749 391.603C482.158 420.334 440.308 438.502 393.174 438.502C346.039 438.502 303.978 420.461 274.598 391.603C245.641 363.295 229.155 325.268 231.48 284.284L231.268 284.073Z" fill="white"/>
<path d="M319.826 279.183C320.978 258.665 331.014 240.535 346.22 227.724C361.101 215.131 381.087 207.423 403.027 207.423C424.86 207.423 444.845 215.12 459.726 227.724C474.932 240.535 484.925 258.665 486.12 279.183C487.271 300.244 478.788 319.894 463.962 334.441C448.755 349.206 427.249 358.542 403.027 358.542C378.806 358.542 357.191 349.271 342.093 334.441C327.212 319.894 318.74 300.353 319.935 279.292L319.826 279.183Z" fill="#265787"/>
<path d="M189.485 322.608C189.626 330.642 192.19 346.275 196.035 358.434C204.116 384.272 217.867 408.156 236.875 429.108C256.426 450.712 280.539 468.083 308.346 480.459C337.564 493.378 369.28 500 402.191 500C435.103 499.957 466.819 493.226 496.037 480.133C523.843 467.648 547.957 450.278 567.508 428.566C586.625 407.396 600.31 383.512 608.348 357.674C612.421 344.647 614.995 331.402 616.027 318.157C617.037 305.13 616.614 291.994 614.757 278.857C611.129 253.345 602.265 229.353 588.688 207.64C576.306 187.556 560.23 170.077 541.113 155.313L541.157 155.28L348.904 7.63481C348.73 7.50454 348.589 7.36329 348.404 7.24387C335.804 -2.43994 314.515 -2.40732 300.721 7.2982C286.709 17.1123 285.08 33.3533 297.571 43.5582L297.517 43.6125L377.785 108.859L133.395 109.119H133.069C112.866 109.141 93.4237 122.364 89.6221 139.191C85.6684 156.236 99.3977 170.457 120.47 170.457L120.437 170.533L244.261 170.295L22.681 339.653C22.3986 339.859 22.0944 340.076 21.8338 340.282C0.979148 356.241 -5.75517 382.839 7.38758 399.558C20.7476 416.602 49.0968 416.71 70.1686 399.655L190.734 300.863C190.734 300.863 188.975 314.216 189.116 322.141L189.485 322.608ZM500.132 367.227C475.259 392.523 440.392 406.962 402.811 406.962C365.12 407.027 330.254 392.849 305.38 367.553C293.215 355.177 284.309 341.064 278.769 325.974C273.371 311.101 271.275 295.359 272.665 279.509C273.979 263.984 278.606 249.111 286.025 235.758C293.28 222.622 303.295 210.68 315.569 200.584C339.791 180.934 370.529 170.186 402.68 170.186C434.94 170.142 465.678 180.706 489.9 200.366C502.174 210.398 512.167 222.296 519.444 235.432C526.863 248.786 531.501 263.55 532.804 279.183C534.173 295.033 532.077 310.775 526.678 325.648C521.161 340.847 512.232 354.96 500.067 367.336L500.132 367.227Z" fill="#EA7600"/>
</g>
<defs>
<clipPath id="clip0_4_33">
<rect width="615.916" height="500" fill="white" transform="translate(0.645508)"/>
</clipPath>
</defs>
</svg>
