<svg width="459" height="520" viewBox="0 0 459 520" fill="none" xmlns="http://www.w3.org/2000/svg">
<path d="M41.7929 468.019L0.065918 0H458.576L416.804 467.945L229.041 520L41.7929 468.019Z" fill="#264DE4"/>
<path d="M381.043 438.149L416.74 38.2666H229.321V480.212L381.043 438.149Z" fill="#2965F1"/>
<path d="M95.726 211.849L100.87 269.249H229.321V211.849H95.726ZM90.6062 153.07H229.321V95.6689H85.3879L90.6062 153.07ZM229.321 360.925L229.069 360.992L165.142 343.73L161.056 297.95H103.434L111.476 388.078L229.057 420.72L229.321 420.646V360.925Z" fill="#EBEBEB"/>
<path d="M229.123 211.849V269.249H299.805L293.142 343.694L229.123 360.973V420.691L346.797 388.078L347.66 378.379L361.148 227.262L362.549 211.849L372.912 95.6689H229.123V153.07H310.006L304.782 211.849H229.123Z" fill="white"/>
</svg>
