<svg width="347" height="520" viewBox="0 0 347 520" fill="none" xmlns="http://www.w3.org/2000/svg">
<path d="M0.172852 86.6666C0.172852 38.8267 38.9262 0 86.6758 0H173.179V173.333H86.6758C38.9262 173.333 0.172852 134.507 0.172852 86.6666Z" fill="#F24E1E"/>
<path d="M173.179 0H259.682C307.431 0 346.185 38.8267 346.185 86.6666C346.185 134.507 307.431 173.333 259.682 173.333H173.179V0Z" fill="#FF7262"/>
<path d="M0.172852 260C0.172852 212.16 38.9262 173.333 86.6758 173.333H173.179V346.667H86.6758C38.9262 346.667 0.172852 307.84 0.172852 260Z" fill="#A259FF"/>
<path d="M346.185 260C346.185 307.84 307.431 346.667 259.682 346.667C211.932 346.667 173.179 307.84 173.179 260C173.179 212.16 211.932 173.333 259.682 173.333C307.431 173.333 346.185 212.16 346.185 260Z" fill="#1ABCFE"/>
<path d="M86.6758 520C134.425 520 173.179 481.173 173.179 433.333V346.667H86.6758C38.9262 346.667 0.172852 385.493 0.172852 433.333C0.172852 481.173 38.9262 520 86.6758 520Z" fill="#0ACF83"/>
</svg>
