<svg width="521" height="520" viewBox="0 0 521 520" fill="none" xmlns="http://www.w3.org/2000/svg">
<path d="M510.597 236.837L283.557 9.80873C270.485 -3.26958 249.28 -3.26958 236.196 9.80873L189.055 56.9608L248.856 116.761C262.754 112.064 278.691 115.216 289.766 126.297C300.908 137.445 304.032 153.517 299.216 167.467L356.861 225.106C370.81 220.295 386.894 223.408 398.031 234.562C413.594 250.125 413.594 275.342 398.031 290.916C382.457 306.484 357.24 306.484 341.66 290.916C329.957 279.202 327.059 261.998 332.996 247.578L279.234 193.822V335.284C283.026 337.163 286.608 339.664 289.766 342.822C305.328 358.384 305.328 383.602 289.766 399.181C274.203 414.738 248.969 414.738 233.417 399.181C217.855 383.596 217.855 358.379 233.417 342.822C237.266 338.979 241.719 336.07 246.473 334.124V191.343C241.719 189.396 237.277 186.516 233.417 182.645C221.629 170.863 218.794 153.557 224.838 139.081L165.887 80.1181L10.2033 235.784C-2.87505 248.874 -2.87505 270.079 10.2033 283.157L237.254 510.191C250.327 523.27 271.526 523.27 284.616 510.191L510.597 284.21C523.675 271.132 523.675 249.915 510.597 236.837Z" fill="#F05133"/>
</svg>
