<svg width="767" height="280" viewBox="0 0 767 280" fill="none" xmlns="http://www.w3.org/2000/svg">
<path fill-rule="evenodd" clip-rule="evenodd" d="M388.71 84.2418C389.668 83.3187 390.229 82.0605 390.272 80.7333H390.291C390.938 55.4493 385.061 35.7 372.839 22.0267C359.933 7.59733 340.165 0.186667 314.081 0C288.043 0 265.614 8.10133 249.211 23.4267C233.699 37.9307 224.945 58.0067 224.551 79.9587C223.886 117.805 245.359 141.876 269.307 165.172C287.846 184.165 291.248 193.555 291.061 204.269C290.836 216.664 284.912 223.776 274.799 223.776C270.628 223.776 267.282 222.488 264.883 219.949C261.134 216.029 259.475 208.945 260.084 199.463C260.186 198.829 260.149 198.182 259.978 197.563C259.807 196.945 259.504 196.37 259.09 195.879C258.616 195.284 258.016 194.801 257.332 194.466C256.648 194.13 255.897 193.949 255.135 193.937H200.398C199.063 193.934 197.779 194.449 196.818 195.372C195.858 196.296 195.296 197.555 195.252 198.884C193.968 225.167 200.117 245.532 213.529 259.411C226.745 273.075 246.615 280 272.625 280C323.557 280 357.027 248.313 357.899 199.295C358.433 168.98 347.326 146.048 319.611 120.157C298.559 99.8293 291.164 87.9947 291.398 74.9747C291.605 63.2987 298.653 56.616 309.582 56.616C320.51 56.616 325.853 64.1013 325.853 79.4733C325.853 82.88 328.749 85.68 332.217 85.68H385.136C386.47 85.6807 387.751 85.165 388.71 84.2418ZM223.576 130.9V130.779H223.548C223.595 128.24 221.824 125.916 219.312 125.589C219.096 125.543 218.862 125.543 218.637 125.543H121.816V125.655C119.313 125.953 117.279 127.643 116.782 129.873L106.697 173.497C106.563 174.085 106.567 174.695 106.709 175.281C106.85 175.867 107.125 176.413 107.513 176.876C108.018 177.469 108.647 177.945 109.356 178.27C110.065 178.596 110.837 178.764 111.618 178.761H126.371C127.224 178.761 128.339 178.883 128.742 179.405C129.126 179.909 129.098 181.039 128.695 182.495C125.827 192.976 119.004 204.465 110.531 211.111C102.048 217.747 88.0454 221.723 78.2321 215.731C67.1628 208.964 65.2882 192.64 64.8289 181.029C63.8635 156.091 68.7655 131.049 78.3914 107.996C85.2804 91.4945 98.2712 61.7212 120.297 61.7212C132.782 61.7212 139.062 71.9878 139.53 93.0812C139.554 94.0839 139.962 95.0395 140.672 95.7513C141.382 96.4632 142.338 96.8771 143.345 96.9078H200.8C202.144 96.9058 203.433 96.3819 204.394 95.4475C205.355 94.5132 205.912 93.2422 205.946 91.9052C205.909 61.4038 198.917 38.1078 185.138 22.6332C172.11 8.00782 153.383 0.681157 129.53 0.886491C51.1165 0.886491 10.3916 79.7812 1.76859 157.967C-3.01155 199.612 4.88037 234.183 23.9822 255.295C38.4351 271.273 55.4749 279.365 80.744 279.365C108.872 279.365 129.923 273.149 147 259.821C167.077 244.169 182.28 218.101 193.508 180.171C193.633 179.752 193.89 179.384 194.241 179.121C194.592 178.859 195.019 178.717 195.458 178.715H207.633C210.483 178.715 212.957 176.913 213.501 174.449L223.576 130.9ZM554.297 270.779L554.643 10.0708C554.653 9.41789 554.532 8.7696 554.287 8.16399C554.042 7.55837 553.678 7.00767 553.216 6.54422C552.754 6.08076 552.203 5.71392 551.597 5.46524C550.991 5.21656 550.341 5.09106 549.685 5.09611H467.785C465.03 5.09611 463.821 7.45744 463.033 9.01611L344.448 269.183V269.229L344.401 269.295C343.089 272.496 345.582 275.921 349.06 275.921H406.309C409.402 275.921 411.455 274.988 412.458 273.047L423.827 245.84C425.223 242.209 425.486 241.873 429.46 241.873H484.16C487.965 241.873 488.04 241.948 487.984 245.653L486.756 270.947C486.746 271.599 486.867 272.246 487.111 272.851C487.356 273.456 487.719 274.007 488.18 274.47C488.641 274.933 489.19 275.3 489.796 275.55C490.401 275.799 491.05 275.925 491.705 275.921H549.544C550.26 275.93 550.97 275.783 551.622 275.489C552.275 275.196 552.855 274.763 553.322 274.223C553.724 273.753 554.02 273.202 554.188 272.607C554.357 272.013 554.394 271.389 554.297 270.779ZM452.976 183.736C452.545 183.738 452.113 183.723 451.683 183.689C451.482 183.673 451.288 183.613 451.113 183.513C450.938 183.414 450.787 183.278 450.671 183.114C450.555 182.95 450.476 182.763 450.441 182.566C450.405 182.369 450.413 182.166 450.464 181.972C450.577 181.599 450.736 181.085 450.97 180.46L491.986 79.3988C492.355 78.4016 492.78 77.4263 493.261 76.4774C493.926 75.1148 494.732 75.0214 494.985 76.0294C495.201 76.8694 490.28 179.797 490.28 179.797C489.896 183.652 489.718 183.811 485.903 184.128L453.014 183.755H452.939L452.976 183.736ZM627.488 5.09594H670.968L671.015 5.06794C735.144 5.06794 767.161 34.0106 766.149 91.1306C764.968 158.06 724.009 207.247 662.336 218.587C653.572 220.192 644.659 220.817 635.755 220.771L605.977 220.64C605.489 220.637 605.019 220.826 604.668 221.164C604.318 221.503 604.115 221.965 604.102 222.451C604.096 222.779 604.184 223.102 604.354 223.383C604.525 223.664 604.773 223.891 605.068 224.037L608.695 225.913L618.068 230.785L627.488 235.667C628.059 235.965 628.631 236.261 629.204 236.557C629.606 236.765 630.009 236.972 630.412 237.179C632.493 238.261 633.299 240.053 632.83 242.368L626.232 272.02C625.688 274.493 623.692 275.921 620.767 275.921H566.424C565.645 275.922 564.875 275.753 564.167 275.428C563.46 275.102 562.832 274.627 562.328 274.036C561.939 273.572 561.663 273.025 561.52 272.438C561.377 271.85 561.371 271.238 561.503 270.648L622.014 9.0346C622.614 6.30927 625.191 5.09594 627.488 5.09594ZM655.006 160.776H656.168C684.709 159.628 700.268 126.047 700.839 93.4639C701.167 74.6386 694.269 63.6159 681.897 63.2426H642.147C641.665 63.2425 641.202 63.4298 640.857 63.7645C640.512 64.0993 640.313 64.5551 640.3 65.0346C640.292 65.3635 640.376 65.6881 640.544 65.9718C640.711 66.2554 640.955 66.4869 641.247 66.6399C641.247 66.6399 666.385 79.8373 668.109 80.7893C669.459 81.5266 669.478 82.7773 669.037 84.9519C669.034 84.9851 667.237 92.8578 664.806 103.506C659.708 125.832 651.825 160.358 651.857 160.403C651.932 160.496 652.391 160.776 655.006 160.776Z" fill="#07E542"/>
</svg>
