<svg width="459" height="520" viewBox="0 0 459 520" fill="none" xmlns="http://www.w3.org/2000/svg">
<path d="M41.6597 467.188L0.019043 0H458.066L416.425 467.188L228.535 520" fill="#E34F26"/>
<path d="M229.55 479.375L380.878 437.734L416.425 37.5781H229.55" fill="#EF652A"/>
<path d="M229.55 211.25H153.378L148.3 152.344H229.55V95.4688H228.535H85.3315L86.3472 110.703L100.566 269.141H229.55V211.25ZM229.55 360.547H228.535L164.55 343.281L160.488 297.578H130.019H103.613L110.722 387.969L228.535 420.469H229.55V360.547Z" fill="#EBEBEB"/>
<path d="M228.535 211.25V269.141H299.628L292.519 343.281L228.535 360.547V420.469L346.347 387.969L347.363 377.812L360.566 226.484L362.597 211.25H346.347H228.535ZM228.535 95.4688V131.016V152.344H367.675L368.691 140.156L371.738 110.703L372.753 95.4688H228.535Z" fill="white"/>
</svg>
