<svg width="513" height="500" viewBox="0 0 513 500" fill="none" xmlns="http://www.w3.org/2000/svg">
<path d="M90.8168 0H422.013C472.227 0 512.825 40.5983 512.825 90.812V409.188C512.825 459.402 472.227 500 422.013 500H90.8168C40.6032 500 0.00488281 459.402 0.00488281 409.188V90.812C0.00488281 40.5983 40.6032 0 90.8168 0Z" fill="#330000"/>
<path d="M247.869 299.145H168.382L152.142 349.359C151.715 351.282 150.006 352.564 148.083 352.35H107.912C105.561 352.35 104.92 351.068 105.561 348.504L174.365 150.427C175.006 148.29 175.647 145.94 176.501 143.376C177.356 138.889 177.783 134.188 177.783 129.487C177.57 128.419 178.424 127.35 179.493 127.137H234.835C236.544 127.137 237.399 127.778 237.613 128.846L315.604 348.931C316.245 351.282 315.604 352.35 313.467 352.35H268.809C267.313 352.564 265.818 351.496 265.39 350L247.869 299.145ZM180.775 255.769H235.048C233.766 251.282 232.057 245.94 230.134 240.384C228.211 234.615 226.288 228.419 224.365 222.008C222.228 215.384 220.305 208.974 218.168 202.35C216.031 195.726 214.108 189.53 212.399 183.333C210.689 177.35 209.194 171.795 207.698 166.666H207.271C205.348 175.854 202.997 185.043 200.006 194.231C196.801 204.487 193.595 215.171 190.177 225.854C187.185 236.752 183.98 246.795 180.775 255.769ZM363.254 164.53C356.202 164.743 349.365 161.966 344.236 157.051C339.322 151.709 336.758 144.658 336.971 137.393C336.758 130.128 339.536 123.29 344.664 118.376C349.792 113.461 356.63 110.897 363.681 110.897C372.014 110.897 378.424 113.461 383.125 118.376C387.826 123.504 390.39 130.342 390.177 137.393C390.39 144.658 387.826 151.709 382.698 157.051C377.783 162.179 370.519 164.957 363.254 164.53ZM339.322 350V185.47C339.322 183.333 340.177 182.478 342.1 182.478H384.407C386.33 182.478 387.185 183.547 387.185 185.47V350C387.185 352.35 386.33 353.419 384.407 353.419H342.527C340.39 353.419 339.322 352.137 339.322 350Z" fill="#FF9A00"/>
</svg>
