<svg width="501" height="482" viewBox="0 0 501 482" fill="none" xmlns="http://www.w3.org/2000/svg">
<path d="M32.3315 113.286C-11.9404 176.905 -6.43049 259.686 27.3936 327.299L29.8686 332.104L31.4523 335.151L32.4399 336.903L34.2042 340.059C35.252 341.907 36.3299 343.744 37.4319 345.593L39.2745 348.628C40.497 350.591 41.7435 352.542 43.0201 354.487L44.6158 356.95C46.3802 359.581 48.1807 362.201 50.0414 364.784L50.198 364.983L51.1133 366.217C52.7211 368.433 54.3771 370.625 56.0571 372.799L57.9179 375.165C59.4173 377.05 60.9408 378.917 62.4884 380.79L64.2347 382.873C66.3122 385.318 68.4378 387.763 70.5996 390.147L70.7261 390.28L70.973 390.551C73.0866 392.857 75.2484 395.115 77.4464 397.374L79.5179 399.463C81.216 401.173 82.9442 402.853 84.6845 404.527L86.7981 406.539C89.1286 408.731 91.477 410.886 93.8797 412.982L93.9881 413.078L95.2226 414.126C97.3362 415.963 99.4859 417.769 101.654 419.558L104.315 421.683C106.086 423.098 107.874 424.501 109.675 425.874L112.547 428.048C114.534 429.512 116.54 430.951 118.563 432.366L120.749 433.919L121.357 434.353C123.272 435.678 125.241 436.948 127.198 438.219L129.727 439.905C132.738 441.802 135.791 443.687 138.874 445.505L141.403 446.932C143.673 448.239 145.956 449.528 148.268 450.78L152.068 452.743L156.982 455.297L158.114 455.845L160.125 456.814C162.696 458.043 165.292 459.253 167.911 460.421L169.555 461.156C172.554 462.469 175.583 463.727 178.636 464.937L180.852 465.805C183.676 466.901 186.542 467.966 189.421 468.978L190.499 469.351C193.654 470.459 196.846 471.477 200.055 472.483L202.361 473.169C205.625 474.157 208.859 475.325 212.225 475.951C426.316 514.99 488.503 347.303 488.503 347.303C436.27 415.348 343.565 433.293 255.726 413.313C252.396 412.56 249.168 411.519 245.923 410.567L243.478 409.82C240.31 408.851 237.161 407.833 234.036 406.749L232.741 406.286C229.941 405.298 227.177 404.262 224.419 403.197L222.083 402.281C219.066 401.089 216.061 399.842 213.098 398.548L211.304 397.747C208.757 396.597 206.233 395.435 203.722 394.224L201.53 393.17C199.561 392.213 197.616 391.195 195.665 390.19L191.757 388.136C189.379 386.872 187.048 385.547 184.73 384.198L182.357 382.879C179.268 381.055 176.221 379.176 173.204 377.267L170.735 375.623C168.549 374.214 166.369 372.775 164.226 371.293L162.124 369.818C160.053 368.361 157.999 366.873 155.97 365.374L153.242 363.309C151.375 361.881 149.521 360.442 147.69 358.967L145.215 356.98C142.879 355.065 140.572 353.126 138.296 351.145L137.537 350.512C135.074 348.351 132.654 346.128 130.263 343.9L128.216 341.925C126.445 340.245 124.699 338.547 122.989 336.801L120.941 334.753C118.762 332.525 116.624 330.267 114.528 327.973L114.209 327.63C111.993 325.209 109.825 322.734 107.706 320.229L106.001 318.206C104.418 316.303 102.852 314.364 101.323 312.419L99.6064 310.281C97.7577 307.89 95.9632 305.506 94.1989 303.085C45.4348 236.563 27.9115 144.816 66.8903 69.4716M169.748 59.6802C137.736 105.747 139.47 167.427 164.449 216.143C168.634 224.309 173.343 232.239 178.606 239.779C183.399 246.661 188.722 254.839 195.087 260.361C197.393 262.902 199.808 265.383 202.271 267.816L204.162 269.689C206.553 272.007 208.985 274.289 211.496 276.505L211.797 276.764L211.87 276.836C214.652 279.275 217.524 281.618 220.439 283.93L222.384 285.447C225.31 287.688 228.291 289.891 231.35 291.993L231.609 292.192L235.704 294.883L237.643 296.166C239.829 297.569 242.039 298.93 244.291 300.237L245.23 300.791C247.169 301.905 249.132 303.001 251.101 304.073L253.191 305.157L257.298 307.288L257.918 307.571C260.742 308.956 263.584 310.299 266.493 311.564L268.384 312.347C270.708 313.328 273.051 314.292 275.411 315.195L278.422 316.303C280.566 317.098 282.71 317.826 284.877 318.549L287.792 319.482C290.869 320.434 293.916 321.644 297.12 322.18C462.416 349.561 500.576 222.291 500.576 222.291C466.18 271.838 399.561 295.474 328.475 277.023C325.319 276.192 322.2 275.289 319.111 274.319L316.299 273.41C314.101 272.705 311.915 271.947 309.753 271.158L306.796 270.056C304.424 269.141 302.075 268.195 299.745 267.208L297.848 266.407C294.928 265.136 292.055 263.793 289.225 262.396L284.901 260.198L282.408 258.916C280.566 257.916 278.735 256.88 276.935 255.82L275.628 255.08C273.388 253.773 271.184 252.43 269.004 251.033L267.005 249.702L262.717 246.86C259.67 244.758 256.702 242.561 253.781 240.327L251.77 238.737C220.655 214.174 195.99 180.597 184.266 142.527C171.976 103.043 174.625 58.7227 195.918 22.7489M285.323 19.6296C266.451 47.4019 264.596 81.9004 277.693 112.575C291.501 145.135 319.797 170.673 352.827 182.789L356.934 184.204L358.74 184.782C360.685 185.396 362.618 186.107 364.629 186.48C455.901 204.118 480.656 139.649 487.244 130.153C465.56 161.375 429.116 168.872 384.399 158.015C380.87 157.16 376.986 155.884 373.584 154.673C369.218 153.114 364.918 151.343 360.733 149.338C352.797 145.52 345.227 140.895 338.206 135.596C298.191 105.235 273.34 47.3236 299.45 0.155273" fill="#0868AC"/>
</svg>
