<svg width="501" height="500" viewBox="0 0 501 500" fill="none" xmlns="http://www.w3.org/2000/svg">
<path d="M500.576 0H0.575928V500H500.576V0Z" fill="#F7DF1E"/>
<path d="M336.449 390.627C346.52 407.072 359.623 419.159 382.798 419.159C402.266 419.159 414.703 409.429 414.703 395.985C414.703 379.873 401.925 374.167 380.496 364.794L368.75 359.754C334.846 345.31 312.322 327.215 312.322 288.961C312.322 253.723 339.171 226.897 381.131 226.897C411.004 226.897 432.481 237.294 447.957 264.516L411.369 288.008C403.314 273.564 394.623 267.873 381.131 267.873C367.369 267.873 358.647 276.604 358.647 288.008C358.647 302.104 367.377 307.81 387.536 316.54L399.282 321.572C439.203 338.691 461.742 356.143 461.742 395.381C461.742 437.683 428.512 460.858 383.885 460.858C340.25 460.858 312.06 440.064 298.266 412.81L336.449 390.627ZM170.473 394.699C177.854 407.794 184.568 418.865 200.711 418.865C216.147 418.865 225.885 412.826 225.885 389.342V229.58H272.869V389.977C272.869 438.627 244.346 460.77 202.711 460.77C165.092 460.77 143.306 441.302 132.227 417.854L170.473 394.699Z" fill="black"/>
</svg>
