<svg width="513" height="500" viewBox="0 0 513 500" fill="none" xmlns="http://www.w3.org/2000/svg">
<path d="M90.9965 0H422.193C472.407 0 513.005 40.5983 513.005 90.812V409.188C513.005 459.402 472.407 500 422.193 500H90.9965C40.7829 500 0.18457 459.402 0.18457 409.188V90.812C0.18457 40.5983 40.7829 0 90.9965 0Z" fill="#001E36"/>
<path d="M115.569 350.641V130.769C115.569 129.273 116.21 128.419 117.706 128.419C121.339 128.419 124.757 128.419 129.672 128.205C134.8 127.991 140.142 127.991 145.911 127.778C151.68 127.564 157.877 127.564 164.501 127.35C171.125 127.137 177.535 127.137 183.945 127.137C201.467 127.137 215.997 129.273 227.962 133.761C238.646 137.393 248.475 143.376 256.595 151.282C263.433 158.12 268.774 166.453 272.193 175.641C275.398 184.615 277.108 193.803 277.108 203.419C277.108 221.795 272.834 236.966 264.287 248.932C255.74 260.897 243.774 269.872 229.886 275C215.356 280.342 199.33 282.265 181.809 282.265C176.68 282.265 173.262 282.265 171.125 282.051C168.988 281.838 165.997 281.838 161.937 281.838V350.427C162.151 351.923 161.082 353.205 159.586 353.419C159.373 353.419 159.159 353.419 158.732 353.419H118.133C116.424 353.419 115.569 352.564 115.569 350.641ZM162.151 169.658V241.453C165.142 241.667 167.92 241.88 170.484 241.88H181.809C190.142 241.88 198.475 240.598 206.381 238.034C213.219 236.111 219.202 232.051 223.903 226.709C228.39 221.367 230.527 214.103 230.527 204.701C230.74 198.077 229.031 191.453 225.612 185.684C221.98 180.128 216.851 175.855 210.655 173.504C202.749 170.299 194.202 169.017 185.441 169.231C179.886 169.231 174.971 169.231 170.911 169.444C166.638 169.231 163.646 169.444 162.151 169.658Z" fill="#31A8FF"/>
<path d="M410.441 228.419C404.03 225 397.193 222.65 389.928 221.154C382.022 219.444 374.116 218.376 365.996 218.376C361.723 218.162 357.236 218.803 353.176 219.872C350.398 220.513 348.048 222.009 346.552 224.145C345.483 225.855 344.842 227.991 344.842 229.914C344.842 231.838 345.697 233.761 346.979 235.47C348.902 237.82 351.466 239.744 354.244 241.239C359.159 243.803 364.287 246.154 369.415 248.291C380.953 252.137 392.065 257.479 402.321 263.889C409.372 268.376 415.142 274.359 419.201 281.624C422.62 288.462 424.33 295.94 424.116 303.632C424.33 313.675 421.338 323.718 415.783 332.051C409.8 340.598 401.466 347.222 391.851 351.068C381.381 355.556 368.56 357.906 353.176 357.906C343.347 357.906 333.731 357.051 324.116 355.128C316.637 353.846 309.159 351.496 302.321 348.291C300.825 347.436 299.757 345.94 299.971 344.231V307.051C299.971 306.41 300.184 305.556 300.825 305.128C301.466 304.701 302.107 304.914 302.748 305.342C311.082 310.256 319.842 313.675 329.244 315.812C337.364 317.949 345.911 319.017 354.458 319.017C362.577 319.017 368.347 317.949 372.193 316.026C375.612 314.53 377.962 310.897 377.962 307.051C377.962 304.06 376.253 301.282 372.834 298.504C369.415 295.726 362.364 292.521 351.894 288.462C340.996 284.615 330.953 279.487 321.552 273.077C314.928 268.376 309.372 262.179 305.312 254.915C301.894 248.077 300.184 240.598 300.398 233.12C300.398 223.932 302.962 215.171 307.663 207.265C313.005 198.718 320.911 191.88 330.099 187.607C340.142 182.479 352.748 180.128 367.919 180.128C376.68 180.128 385.654 180.769 394.415 182.051C400.825 182.906 407.022 184.615 412.791 186.966C413.646 187.179 414.5 188.034 414.928 188.889C415.142 189.744 415.355 190.598 415.355 191.453V226.282C415.355 227.137 414.928 227.991 414.287 228.419C412.364 228.846 411.295 228.846 410.441 228.419Z" fill="#31A8FF"/>
</svg>
