<svg width="558" height="500" viewBox="0 0 558 500" fill="none" xmlns="http://www.w3.org/2000/svg">
<g clip-path="url(#clip0_5_103)">
<path d="M278.922 299.736C306.335 299.736 328.557 277.513 328.557 250.101C328.557 222.688 306.335 200.465 278.922 200.465C251.509 200.465 229.287 222.688 229.287 250.101C229.287 277.513 251.509 299.736 278.922 299.736Z" fill="#61DAFB"/>
<path fill-rule="evenodd" clip-rule="evenodd" d="M41.6297 219.507C29.649 230.322 24.6938 240.682 24.6938 250.104C24.6938 259.525 29.649 269.885 41.6297 280.7C53.609 291.514 71.6233 301.808 94.9138 310.701C141.412 328.454 206.465 339.689 278.923 339.689C351.381 339.689 416.435 328.454 462.933 310.701C486.223 301.808 504.237 291.514 516.217 280.7C528.197 269.885 533.153 259.525 533.153 250.104C533.153 240.682 528.197 230.322 516.217 219.507C504.237 208.693 486.223 198.399 462.933 189.506C416.435 171.753 351.381 160.518 278.923 160.518C206.465 160.518 141.412 171.753 94.9138 189.506C71.6233 198.399 53.609 208.693 41.6297 219.507ZM86.2772 166.887C136.174 147.835 204.288 136.306 278.923 136.306C353.558 136.306 421.672 147.835 471.569 166.887C496.476 176.397 517.466 188.016 532.441 201.534C547.415 215.052 557.365 231.444 557.365 250.104C557.365 268.763 547.415 285.156 532.441 298.673C517.466 312.191 496.476 323.81 471.569 333.32C421.672 352.372 353.558 363.902 278.923 363.902C204.288 363.902 136.174 352.372 86.2772 333.32C61.3705 323.81 40.3807 312.191 25.4055 298.673C10.4315 285.156 0.481445 268.763 0.481445 250.104C0.481445 231.444 10.4315 215.052 25.4055 201.534C40.3807 188.016 61.3705 176.397 86.2772 166.887Z" fill="#61DAFB"/>
<path fill-rule="evenodd" clip-rule="evenodd" d="M186.774 29.3009C171.418 24.333 159.968 25.2215 151.809 29.9324C143.649 34.6433 137.155 44.1145 133.779 59.8977C130.404 75.6791 130.496 96.4267 134.44 121.043C142.314 170.188 165.111 232.144 201.34 294.894C237.569 357.645 279.825 408.366 318.449 439.757C337.796 455.481 355.718 465.935 371.073 470.902C386.429 475.87 397.879 474.982 406.038 470.271C414.198 465.56 420.692 456.089 424.068 440.305C427.443 424.524 427.351 403.776 423.407 379.16C415.533 330.015 392.736 268.059 356.507 205.309C320.278 142.558 278.021 91.8376 239.397 60.4461C220.051 44.7223 202.129 34.2684 186.774 29.3009ZM254.668 41.6569C296.116 75.343 340.158 128.567 377.475 193.203C414.793 257.839 438.865 322.592 447.314 375.33C451.532 401.654 451.964 425.642 447.745 445.37C443.525 465.096 434.304 481.909 418.144 491.239C401.985 500.569 382.813 500.148 363.62 493.939C344.425 487.729 323.868 475.361 303.179 458.546C261.731 424.86 217.689 371.636 180.371 307.001C143.054 242.365 118.982 177.611 110.533 124.874C106.315 98.5488 105.883 74.5616 110.102 54.8334C114.322 35.107 123.543 18.2937 139.702 8.96391C155.862 -0.365933 175.034 0.0549305 194.227 6.26411C213.422 12.4738 233.979 24.8419 254.668 41.6569Z" fill="#61DAFB"/>
<path fill-rule="evenodd" clip-rule="evenodd" d="M424.067 59.8966C420.691 44.1135 414.197 34.6422 406.038 29.9313C397.878 25.2205 386.429 24.3319 371.072 29.2999C355.717 34.2673 337.796 44.7213 318.449 60.4451C279.825 91.8365 237.569 142.557 201.34 205.308C165.111 268.058 142.313 330.014 134.44 379.159C130.496 403.775 130.403 424.523 133.779 440.304C137.155 456.088 143.649 465.559 151.808 470.27C159.968 474.981 171.417 475.869 186.774 470.901C202.129 465.934 220.05 455.48 239.397 439.756C278.021 408.364 320.277 357.644 356.506 294.893C392.735 232.143 415.533 170.187 423.406 121.042C427.35 96.4257 427.443 75.6781 424.067 59.8966ZM447.314 124.873C438.865 177.61 414.793 242.363 377.475 306.999C340.157 371.635 296.115 424.859 254.668 458.545C233.979 475.36 213.421 487.728 194.226 493.938C175.033 500.147 155.862 500.568 139.702 491.238C123.542 481.908 114.321 465.095 110.102 445.369C105.882 425.64 106.315 401.653 110.532 375.328C118.982 322.591 143.054 257.838 180.371 193.202C217.689 128.566 261.731 75.3419 303.178 41.6558C323.867 24.8408 344.425 12.4728 363.62 6.26306C382.813 0.0538777 401.984 -0.366986 418.144 8.96285C434.304 18.2927 443.525 35.1059 447.744 54.8324C451.964 74.5605 451.531 98.5477 447.314 124.873Z" fill="#61DAFB"/>
</g>
<defs>
<clipPath id="clip0_5_103">
<rect width="556.818" height="500" fill="white" transform="translate(0.576172)"/>
</clipPath>
</defs>
</svg>
