<svg width="601" height="360" viewBox="0 0 601 360" fill="none" xmlns="http://www.w3.org/2000/svg">
<mask id="mask0_5_129" style="mask-type:luminance" maskUnits="userSpaceOnUse" x="0" y="0" width="601" height="360">
<path d="M0.394531 0H600.394V360H0.394531V0Z" fill="white"/>
</mask>
<g mask="url(#mask0_5_129)">
<path fill-rule="evenodd" clip-rule="evenodd" d="M300.394 0C220.395 0 170.395 40 150.395 120C180.395 80 215.395 65 255.395 75C278.217 80.7 294.528 97.2667 312.583 115.589C341.994 145.444 376.039 180 450.394 180C530.394 180 580.394 140 600.394 60C570.394 100 535.394 115 495.394 105C472.572 99.3 456.261 82.7333 438.206 64.4111C408.794 34.5556 374.75 0 300.394 0ZM150.395 180C70.3945 180 20.3945 220 0.394531 300C30.3945 260 65.3945 245 105.395 255C128.217 260.711 144.528 277.267 162.583 295.589C191.995 325.444 226.039 360 300.394 360C380.394 360 430.394 320 450.394 240C420.394 280 385.394 295 345.394 285C322.572 279.3 306.261 262.733 288.206 244.411C258.794 214.556 224.75 180 150.395 180Z" fill="#38BDF8"/>
</g>
</svg>
